name processed_emg_signals										
nRows=135										
nColumns=7										
 										
endheader										
time	RGLTMED	RRF	RADDLONG	RST	RTA	RGM				
1.35	0.063828192	0.024570302	0.030887161	0.099366046	0.018735187	0.070295727				
1.351	0.063752259	0.024188678	0.030910431	0.099839351	0.020711274	0.069624025				
1.352	0.063731173	0.02382416	0.03094145	0.100300327	0.02273386	0.068952228				
1.353	0.063764205	0.023476581	0.030979887	0.100748901	0.024798514	0.068281561				
1.354	0.063850587	0.023145759	0.031025408	0.101185002	0.02690087	0.067613287				
1.355	0.063989509	0.022831502	0.031077674	0.101608568	0.029036625	0.066948706				
1.356	0.064180121	0.022533604	0.031136341	0.102019538	0.03120155	0.066289157				
1.357	0.064421532	0.022251848	0.031201063	0.102417854	0.033391486	0.065636014				
1.358	0.064712816	0.021986008	0.031271493	0.102803465	0.035602354	0.064990688				
1.359	0.065053006	0.021735843	0.031347279	0.103176322	0.037830155	0.064354627				
1.36	0.065441097	0.021501106	0.031428071	0.103536379	0.040070976	0.063729315				
1.361	0.065876051	0.021281537	0.031513515	0.103883593	0.04232099	0.06311627				
1.362	0.066356792	0.021076872	0.031603261	0.104217927	0.044576461	0.062517045				
1.363	0.066882211	0.020886832	0.031696956	0.104539343	0.046833747	0.061933229				
1.364	0.067451164	0.020711136	0.031794251	0.104847809	0.049089302	0.06136644				
1.365	0.068062476	0.020549492	0.031894795	0.105143294	0.051339678	0.060818333				
1.366	0.068714937	0.020401603	0.031998244	0.10542577	0.053581527	0.060290591				
1.367	0.069407309	0.020267163	0.032104252	0.105695213	0.055811606	0.059784928				
1.368	0.070138324	0.020145864	0.032212479	0.105951598	0.058026774	0.059303088				
1.369	0.070906684	0.02003739	0.032322589	0.106194905	0.060223998	0.058846843				
1.37	0.071711064	0.019941421	0.032434249	0.106425116	0.062400352	0.058417992				
1.371	0.072550112	0.019857631	0.03254713	0.106642213	0.06455302	0.058018358				
1.372	0.073422449	0.019785693	0.032660911	0.106846183	0.066679297	0.05764979				
1.373	0.074326675	0.019725274	0.032775273	0.107037013	0.068776588	0.057314158				
1.374	0.075261364	0.01967604	0.032889906	0.107214691	0.070842411	0.057013353				
1.375	0.076225069	0.019637654	0.033004504	0.10737921	0.072874396	0.056749285				
1.376	0.077216321	0.019609775	0.033118768	0.107530562	0.074870289	0.056523883				
1.377	0.078233633	0.019592064	0.033232408	0.107668742	0.076827948	0.056339089				
1.378	0.0792755	0.019584178	0.033345139	0.107793747	0.078745346	0.05619686				
1.379	0.080340398	0.019585774	0.033456684	0.107905575	0.080620569	0.056099164				
1.38	0.081426789	0.019596509	0.033566774	0.108004227	0.082451819	0.056047979				
1.381	0.082533121	0.01961604	0.03367515	0.108089705	0.084237413	0.05604529				
1.382	0.08365783	0.019644025	0.033781558	0.108162013	0.08597578	0.056093085				
1.383	0.084799338	0.019680122	0.033885755	0.108221158	0.087665462	0.056193359				
1.384	0.085956061	0.01972399	0.033987506	0.108267148	0.089305117	0.056348102				
1.385	0.087126404	0.019775292	0.034086586	0.108299995	0.090893513	0.056559306				
1.386	0.088308766	0.019833689	0.034182777	0.108319711	0.092429531	0.056828958				
1.387	0.089501542	0.019898849	0.034275873	0.108326313	0.093912161	0.057159036				
1.388	0.090703122	0.019970439	0.034365674	0.108319819	0.095340506	0.05755151				
1.389	0.091911895	0.020048131	0.034451993	0.108300251	0.096713774	0.058008338				
1.39	0.09312625	0.020131599	0.034534651	0.108267633	0.098031284	0.058531462				
1.391	0.094344576	0.020220521	0.034613478	0.108221992	0.099292458	0.059122807				
1.392	0.095565267	0.020314581	0.034688315	0.10816336	0.100496827	0.05978428				
1.393	0.09678672	0.020413463	0.034759013	0.10809177	0.101644021	0.060517763				
1.394	0.098007338	0.020516861	0.034825431	0.108007262	0.102733776	0.061325113				
1.395	0.099225534	0.020624468	0.03488744	0.107909876	0.103765925	0.062208159				
1.396	0.100439728	0.020735985	0.034944919	0.10779966	0.104740401	0.063168699				
1.397	0.101648354	0.02085112	0.034997759	0.107676664	0.105657234	0.064208498				
1.398	0.102849857	0.020969582	0.035045859	0.107540943	0.106516548	0.065329284				
1.399	0.104042698	0.021091088	0.035089128	0.107392557	0.107318561	0.066532747				
1.4	0.105225354	0.021215362	0.035127485	0.107231569	0.10806358	0.067820533				
1.401	0.106396318	0.021342132	0.035160858	0.107058051	0.108752001	0.069194245				
1.402	0.107554105	0.021471133	0.035189186	0.106872077	0.109384307	0.07065544				
1.403	0.108697251	0.021602105	0.035212416	0.106673728	0.109961064	0.072205622				
1.404	0.109824313	0.021734797	0.035230504	0.106463091	0.110482921	0.073846245				
1.405	0.110933875	0.021868962	0.035243415	0.106240257	0.110950605	0.075578706				
1.406	0.112024545	0.022004361	0.035251125	0.106005325	0.11136492	0.077404347				
1.407	0.113094958	0.02214076	0.035253616	0.1057584	0.111726742	0.079324446				
1.408	0.11414378	0.022277935	0.03525088	0.105499592	0.112037021	0.08134022				
1.409	0.115169707	0.022415666	0.035242917	0.105229021	0.112296773	0.083452821				
1.41	0.116171465	0.02255374	0.035229736	0.10494681	0.112507082	0.085663332				
1.411	0.117147816	0.022691953	0.035211352	0.10465309	0.112669093	0.087972767				
1.412	0.118097555	0.022830106	0.03518779	0.104348002	0.112784009	0.090382067				
1.413	0.119019513	0.022968007	0.035159081	0.104031689	0.112853092	0.092892097				
1.414	0.119912559	0.023105473	0.035125263	0.103704307	0.112877657	0.095503646				
1.415	0.120775602	0.023242326	0.035086381	0.103366014	0.112859067	0.098217423				
1.416	0.121607586	0.023378395	0.035042488	0.10301698	0.112798736	0.101034056				
1.417	0.122407502	0.023513518	0.034993642	0.10265738	0.112698118	0.103954091				
1.418	0.123174377	0.023647537	0.034939909	0.102287398	0.112558709	0.106977984				
1.419	0.123907286	0.023780304	0.034881357	0.101907223	0.112382043	0.110106109				
1.42	0.124605345	0.023911676	0.034818063	0.101517056	0.112169686	0.113338746				
1.421	0.125267715	0.024041517	0.034750108	0.101117101	0.111923237	0.116676088				
1.422	0.125893604	0.024169699	0.034677577	0.100707573	0.11164432	0.120118231				
1.423	0.126482265	0.024296099	0.034600562	0.100288693	0.111334586	0.12366518				
1.424	0.127033	0.024420602	0.034519156	0.099860689	0.110995704	0.127316841				
1.425	0.127545156	0.024543099	0.034433459	0.099423796	0.110629362	0.131073026				
1.426	0.12801813	0.024663488	0.034343573	0.098978259	0.110237263	0.134933444				
1.427	0.128451368	0.024781673	0.034249602	0.098524327	0.10982112	0.138897706				
1.428	0.128844365	0.024897566	0.034151656	0.098062256	0.109382653	0.142965322				
1.429	0.129196665	0.025011083	0.034049846	0.09759231	0.10892359	0.147135698				
1.43	0.12950786	0.025122147	0.033944285	0.097114759	0.108445658	0.151408136				
1.431	0.129777596	0.025230688	0.033835089	0.096629879	0.107950584	0.155781834				
1.432	0.130005565	0.025336642	0.033722375	0.096137952	0.107440089	0.160255884				
1.433	0.130191511	0.025439948	0.033606263	0.095639265	0.10691589	0.164829272				
1.434	0.130335226	0.025540556	0.033486872	0.095134111	0.10637969	0.169500876				
1.435	0.130436554	0.025638417	0.033364325	0.094622788	0.105833181	0.174269467				
1.436	0.130495386	0.025733489	0.033238742	0.094105599	0.105278039	0.179133709				
1.437	0.130511663	0.025825738	0.033110246	0.09358285	0.104715921	0.184092155				
1.438	0.130485374	0.025915131	0.032978959	0.093054852	0.104148464	0.189143251				
1.439	0.130416556	0.026001643	0.032845005	0.092521919	0.103577278	0.194285333				
1.44	0.130305295	0.026085254	0.032708506	0.091984367	0.103003951	0.19951663				
1.441	0.130151722	0.026165948	0.032569582	0.091442518	0.102430038	0.20483526				
1.442	0.129956015	0.026243714	0.032428357	0.090896693	0.101857065	0.210239236				
1.443	0.129718396	0.026318546	0.032284949	0.090347215	0.101286525	0.21572646				
1.444	0.129439133	0.026390442	0.032139478	0.089794409	0.100719875	0.221294728				
1.445	0.129118537	0.026459406	0.031992062	0.089238601	0.100158534	0.22694173				
1.446	0.128756962	0.026525444	0.031842818	0.088680115	0.09960388	0.232665049				
1.447	0.128354802	0.026588568	0.031691861	0.088119277	0.099057252	0.238462165				
1.448	0.127912494	0.026648793	0.031539304	0.087556411	0.098519944	0.244330454				
1.449	0.127430512	0.026706137	0.031385259	0.08699184	0.097993204	0.25026719				
1.45	0.12690937	0.026760624	0.031229836	0.086425884	0.097478236	0.256269547				
1.451	0.126349619	0.026812281	0.031073143	0.085858861	0.096976193	0.2623346				
1.452	0.125751845	0.026861136	0.030915286	0.085291086	0.096488178	0.268459327				
1.453	0.12511667	0.026907223	0.030756368	0.084722871	0.096015246	0.274640611				
1.454	0.124444747	0.026950578	0.03059649	0.084154521	0.095558397	0.280875244				
1.455	0.123736764	0.026991241	0.030435753	0.08358634	0.095118578	0.287159925				
1.456	0.122993438	0.027029254	0.030274252	0.083018622	0.094696681	0.293491268				
1.457	0.122215516	0.02706466	0.030112083	0.08245166	0.094293544	0.2998658				
1.458	0.121403774	0.027097508	0.029949339	0.081885737	0.093909948	0.306279965				
1.459	0.120559014	0.027127848	0.029786109	0.08132113	0.093546616	0.312730129				
1.46	0.119682063	0.02715573	0.029622481	0.080758108	0.093204216	0.319212581				
1.461	0.118773774	0.02718121	0.029458541	0.080196933	0.092883355	0.325723535				
1.462	0.11783502	0.027204343	0.029294372	0.079637858	0.092584584	0.332259137				
1.463	0.116866697	0.027225187	0.029130057	0.079081127	0.092308394	0.338815466				
1.464	0.115869721	0.027243801	0.028965673	0.078526973	0.092055216	0.345388537				
1.465	0.114845026	0.027260246	0.028801299	0.077975621	0.091825424	0.351974308				
1.466	0.113793565	0.027274586	0.02863701	0.077427286	0.091619332	0.358568678				
1.467	0.112716303	0.027286882	0.028472879	0.076882169	0.091437196	0.365167497				
1.468	0.111614223	0.0272972	0.028308978	0.076340465	0.091279211	0.371766567				
1.469	0.110488319	0.027305604	0.028145376	0.075802353	0.091145516	0.378361648				
1.47	0.109339598	0.027312162	0.027982143	0.075268004	0.09103619	0.384948459				
1.471	0.108169076	0.027316941	0.027819346	0.074737573	0.090951258	0.391522687				
1.472	0.106977778	0.027320006	0.027657049	0.074211207	0.090890685	0.398079986				
1.473	0.105766739	0.027321426	0.027495318	0.073689039	0.090854381	0.404615988				
1.474	0.104536996	0.027321269	0.027334216	0.073171188	0.0908422	0.411126303				
1.475	0.103289595	0.027319602	0.027173806	0.072657762	0.090853942	0.417606524				
1.476	0.102025584	0.027316493	0.027014148	0.072148858	0.090889356	0.424052237				
1.477	0.100746014	0.02731201	0.026855304	0.071644556	0.090948134	0.430459017				
1.478	0.099451937	0.027306219	0.026697334	0.071144928	0.091029921	0.436822441				
1.479	0.098144405	0.027299187	0.026540298	0.070650029	0.091134309	0.44313809				
1.48	0.096824469	0.02729098	0.026384255	0.070159905	0.091260843	0.449401554				
1.481	0.095493179	0.027281663	0.026229266	0.069674587	0.09140902	0.455608436				
1.482	0.09415158	0.027271299	0.026075389	0.069194095	0.091578292	0.461754358				
1.483	0.092800714	0.027259951	0.025922685	0.068718436	0.091768065	0.467834967				
1.484	0.091441616	0.027247682	0.025771212	0.068247605	0.091977704	0.473845941				
